<svg width="230" height="30" viewBox="0 0 230 30" fill="none" xmlns="http://www.w3.org/2000/svg">
<path fill-rule="evenodd" clip-rule="evenodd" d="M0 1.30223C0 0.583027 0.583027 0 1.30223 0H28.835C29.5542 0 30.1373 0.583027 30.1373 1.30223V27.9049C30.1373 28.6241 29.5542 29.2071 28.835 29.2071H13.5804C6.08013 29.2071 0 23.127 0 15.6267V1.30223ZM15.1923 4.83686V11.4271C15.1682 7.78324 12.2068 4.83681 8.55733 4.83681V11.472H8.5571V17.7007V18.1071H8.56934C8.77931 21.5824 11.6642 24.3359 15.1923 24.3359V18.1071V17.7007V11.472H15.1923V11.472H18.417V11.4997H25.0522L26.1376 4.86456H21.8275V4.83686H15.1923ZM21.8275 17.7007H15.1923V24.3359H20.7425L21.8275 17.7007Z" fill="#8CE95F"/>
<path d="M33.571 25.0754L36.9675 4.61668H45.0391C46.5841 4.61668 47.8561 4.88973 48.8551 5.43583C49.8607 5.98192 50.5667 6.75778 50.9729 7.7634C51.3858 8.76236 51.4824 9.94114 51.2626 11.2997C51.0362 12.6583 50.5467 13.8238 49.7941 14.7961C49.0482 15.7684 48.0759 16.5176 46.8772 17.0437C45.6851 17.5632 44.3032 17.8229 42.7315 17.8229H37.3271L37.9265 14.3465H42.6216C43.4474 14.3465 44.1533 14.2333 44.7394 14.0069C45.3254 13.7805 45.7883 13.4408 46.1279 12.988C46.4742 12.5351 46.7007 11.9724 46.8072 11.2997C46.9204 10.6138 46.8805 10.041 46.6874 9.58151C46.4942 9.11533 46.1446 8.76236 45.6384 8.52261C45.1323 8.2762 44.4663 8.153 43.6405 8.153H40.7236L37.8965 25.0754H33.571ZM46.1579 15.7651L49.7042 25.0754H44.9292L41.4928 15.7651H46.1579ZM58.5128 25.3751C56.9477 25.3751 55.6524 25.0421 54.6268 24.3761C53.6012 23.7035 52.8786 22.7711 52.4591 21.579C52.0462 20.3803 51.9696 18.9851 52.2293 17.3934C52.4824 15.8217 53.0085 14.4464 53.8077 13.2677C54.6069 12.0889 55.6225 11.1732 56.8545 10.5205C58.0866 9.86122 59.4751 9.53156 61.0202 9.53156C62.5786 9.53156 63.8705 9.86788 64.8961 10.5405C65.9217 11.2065 66.6443 12.1388 67.0639 13.3376C67.4834 14.5364 67.5634 15.9316 67.3036 17.5232C67.0439 19.0883 66.5111 20.4602 65.7053 21.639C64.8995 22.8177 63.8839 23.7368 62.6585 24.3961C61.4331 25.0487 60.0512 25.3751 58.5128 25.3751ZM58.9323 22.0785C59.6516 22.0785 60.2876 21.8754 60.8404 21.4691C61.3998 21.0562 61.8626 20.4968 62.2289 19.7909C62.6019 19.0783 62.8616 18.2725 63.0081 17.3734C63.1546 16.4877 63.1646 15.7018 63.0381 15.0159C62.9115 14.3232 62.6451 13.7771 62.2389 13.3776C61.8393 12.978 61.2899 12.7782 60.5906 12.7782C59.8714 12.7782 59.232 12.9846 58.6726 13.3975C58.1132 13.8038 57.6503 14.3632 57.2841 15.0758C56.9178 15.7884 56.6614 16.5975 56.5149 17.5033C56.375 18.3823 56.365 19.1682 56.4849 19.8608C56.6048 20.5468 56.8678 21.0895 57.2741 21.4891C57.6803 21.882 58.2331 22.0785 58.9323 22.0785ZM79.2215 9.73135L78.692 12.928H69.4416L69.9811 9.73135H79.2215ZM72.6783 6.05518H76.9338L74.5563 20.3603C74.4897 20.7532 74.4997 21.0596 74.5863 21.2793C74.6729 21.4924 74.816 21.6423 75.0158 21.7289C75.2223 21.8154 75.4687 21.8587 75.7551 21.8587C75.9549 21.8587 76.158 21.8421 76.3644 21.8088C76.5709 21.7688 76.7274 21.7389 76.8339 21.7189L76.9938 24.8856C76.754 24.9588 76.431 25.0387 76.0248 25.1253C75.6252 25.2119 75.1524 25.2652 74.6063 25.2852C73.5673 25.3251 72.6883 25.1886 71.969 24.8756C71.2498 24.5559 70.7336 24.0664 70.4206 23.4071C70.1076 22.7478 70.041 21.9187 70.2208 20.9197L72.6783 6.05518ZM83.4623 25.3651C82.49 25.3651 81.6475 25.1953 80.9349 24.8556C80.229 24.5093 79.7095 23.9965 79.3765 23.3172C79.0436 22.6379 78.9603 21.7955 79.1268 20.7898C79.2733 19.9374 79.5497 19.2248 79.9559 18.6521C80.3688 18.0727 80.8717 17.6065 81.4644 17.2535C82.0571 16.9006 82.7131 16.6308 83.4323 16.4444C84.1582 16.2579 84.9074 16.1314 85.68 16.0648C86.5724 15.9715 87.2983 15.8816 87.8577 15.795C88.4238 15.7085 88.8467 15.5853 89.1264 15.4254C89.4061 15.2589 89.5759 15.0125 89.6359 14.6862V14.6263C89.7358 14.0002 89.6192 13.5141 89.2862 13.1678C88.9599 12.8148 88.4371 12.6383 87.7179 12.6383C86.9586 12.6383 86.3127 12.8048 85.7799 13.1378C85.2538 13.4708 84.8775 13.8937 84.651 14.4065L80.7751 14.0868C81.1214 13.1545 81.6442 12.3486 82.3435 11.6693C83.0494 10.9834 83.8985 10.4573 84.8908 10.091C85.8831 9.71803 86.9953 9.53156 88.2273 9.53156C89.0798 9.53156 89.8756 9.63146 90.6148 9.83125C91.3607 10.031 92.0034 10.3407 92.5428 10.7603C93.0889 11.1798 93.4819 11.7193 93.7216 12.3786C93.968 13.0313 94.018 13.8138 93.8714 14.7262L92.1432 25.0754H88.1074L88.4671 22.9476H88.3472C88.0209 23.4271 87.6213 23.85 87.1484 24.2163C86.6756 24.5759 86.1328 24.8589 85.5201 25.0654C84.9074 25.2652 84.2215 25.3651 83.4623 25.3651ZM85.1705 22.4281C85.7899 22.4281 86.3593 22.3049 86.8787 22.0585C87.4048 21.8054 87.8377 21.4658 88.1774 21.0396C88.5237 20.6134 88.7435 20.1305 88.8367 19.5911L89.0964 17.9628C88.9632 18.0494 88.7701 18.1259 88.517 18.1925C88.2706 18.2591 88.0009 18.3224 87.7079 18.3823C87.4215 18.4356 87.1318 18.4856 86.8388 18.5322C86.5457 18.5721 86.2827 18.6121 86.0496 18.6521C85.5368 18.7253 85.0773 18.8419 84.671 19.0017C84.2648 19.1615 83.9351 19.378 83.6821 19.651C83.429 19.9174 83.2725 20.2504 83.2125 20.65C83.1193 21.2294 83.2558 21.6723 83.6221 21.9786C83.9951 22.2783 84.5112 22.4281 85.1705 22.4281ZM95.9146 25.0754L99.311 4.61668H111.578L111.219 6.81439H101.429L100.27 13.7272H109.141L108.781 15.9249H99.9104L98.392 25.0754H95.9146ZM111.796 25.0754L114.353 9.73135H116.711L114.153 25.0754H111.796ZM116.251 7.13406C115.792 7.13406 115.395 6.97755 115.062 6.66455C114.736 6.35154 114.573 5.97526 114.573 5.53572C114.573 5.09618 114.736 4.7199 115.062 4.4069C115.395 4.09389 115.792 3.93739 116.251 3.93739C116.711 3.93739 117.104 4.09389 117.43 4.4069C117.763 4.7199 117.929 5.09618 117.929 5.53572C117.929 5.97526 117.763 6.35154 117.43 6.66455C117.104 6.97755 116.711 7.13406 116.251 7.13406ZM122.038 15.845L120.519 25.0754H118.162L120.719 9.73135H122.997L122.597 12.1289H122.797C123.277 11.3497 123.926 10.7237 124.745 10.2508C125.564 9.77131 126.553 9.53156 127.712 9.53156C128.738 9.53156 129.603 9.74467 130.309 10.1709C131.022 10.5905 131.525 11.2298 131.818 12.0889C132.117 12.9413 132.161 14.0202 131.948 15.3255L130.309 25.0754H127.952L129.55 15.4854C129.75 14.2866 129.593 13.3476 129.081 12.6683C128.574 11.989 127.772 11.6494 126.673 11.6494C125.914 11.6494 125.211 11.8125 124.565 12.1388C123.926 12.4652 123.383 12.9413 122.937 13.5674C122.497 14.1934 122.198 14.9526 122.038 15.845ZM138.783 25.435C137.811 25.435 136.958 25.2519 136.226 24.8856C135.493 24.5126 134.95 23.9765 134.598 23.2773C134.245 22.5713 134.148 21.7189 134.308 20.7199C134.461 19.8408 134.757 19.1282 135.197 18.5821C135.636 18.0294 136.169 17.5965 136.795 17.2835C137.428 16.9638 138.107 16.7274 138.833 16.5742C139.566 16.4144 140.295 16.2912 141.021 16.2046C141.966 16.0847 142.736 15.9915 143.328 15.9249C143.921 15.8583 144.367 15.7484 144.667 15.5952C144.967 15.4421 145.15 15.179 145.216 14.8061V14.7262C145.376 13.7472 145.246 12.9846 144.827 12.4385C144.407 11.8858 143.658 11.6094 142.579 11.6094C141.46 11.6094 140.525 11.8558 139.772 12.3486C139.02 12.8414 138.463 13.3676 138.104 13.927L136.026 13.1278C136.572 12.1955 137.225 11.4695 137.984 10.9501C138.743 10.424 139.539 10.0577 140.371 9.85123C141.204 9.63812 142.006 9.53156 142.779 9.53156C143.272 9.53156 143.828 9.5915 144.447 9.71137C145.067 9.82459 145.646 10.061 146.185 10.4206C146.732 10.7803 147.141 11.323 147.414 12.0489C147.694 12.7749 147.734 13.7472 147.534 14.9659L145.856 25.0754H143.498L143.858 22.9975H143.738C143.525 23.3305 143.199 23.6868 142.759 24.0664C142.326 24.446 141.777 24.769 141.111 25.0354C140.451 25.3018 139.676 25.435 138.783 25.435ZM139.462 23.3172C140.395 23.3172 141.211 23.1341 141.91 22.7678C142.616 22.4015 143.182 21.9287 143.608 21.3493C144.041 20.7699 144.311 20.1605 144.417 19.5212L144.777 17.3634C144.657 17.4833 144.421 17.5932 144.068 17.6931C143.715 17.7863 143.315 17.8695 142.869 17.9428C142.429 18.0094 142 18.0693 141.58 18.1226C141.167 18.1692 140.834 18.2092 140.581 18.2425C139.955 18.3224 139.359 18.4523 138.793 18.6321C138.234 18.8052 137.761 19.0683 137.375 19.4213C136.995 19.7676 136.759 20.2404 136.665 20.8398C136.525 21.6589 136.722 22.2783 137.255 22.6979C137.788 23.1108 138.523 23.3172 139.462 23.3172ZM153.725 15.845L152.207 25.0754H149.849L152.407 9.73135H154.684L154.285 12.1289H154.485C154.964 11.3497 155.613 10.7237 156.433 10.2508C157.252 9.77131 158.241 9.53156 159.399 9.53156C160.425 9.53156 161.291 9.74467 161.997 10.1709C162.709 10.5905 163.212 11.2298 163.505 12.0889C163.805 12.9413 163.848 14.0202 163.635 15.3255L161.997 25.0754H159.639L161.238 15.4854C161.437 14.2866 161.281 13.3476 160.768 12.6683C160.262 11.989 159.459 11.6494 158.36 11.6494C157.601 11.6494 156.899 11.8125 156.253 12.1388C155.613 12.4652 155.071 12.9413 154.624 13.5674C154.185 14.1934 153.885 14.9526 153.725 15.845ZM172.189 25.395C170.744 25.395 169.558 25.0554 168.633 24.3761C167.714 23.6968 167.074 22.7611 166.715 21.569C166.355 20.3769 166.302 19.015 166.555 17.4833C166.808 15.9249 167.321 14.5497 168.093 13.3576C168.866 12.1588 169.828 11.2231 170.98 10.5505C172.132 9.87121 173.401 9.53156 174.786 9.53156C175.865 9.53156 176.804 9.73135 177.603 10.1309C178.402 10.5305 179.018 11.0899 179.451 11.8092C179.884 12.5284 180.087 13.3676 180.061 14.3266H177.703C177.637 13.6273 177.337 13.0079 176.804 12.4685C176.278 11.9224 175.499 11.6494 174.466 11.6494C173.547 11.6494 172.702 11.8891 171.929 12.3686C171.157 12.8414 170.507 13.5108 169.981 14.3765C169.455 15.2356 169.099 16.2446 168.912 17.4034C168.712 18.5888 168.729 19.6211 168.962 20.5001C169.195 21.3792 169.618 22.0618 170.231 22.548C170.844 23.0342 171.616 23.2773 172.548 23.2773C173.161 23.2773 173.734 23.1707 174.267 22.9576C174.799 22.7445 175.272 22.4381 175.685 22.0385C176.098 21.639 176.424 21.1595 176.664 20.6H179.022C178.729 21.5058 178.259 22.3216 177.613 23.0475C176.967 23.7667 176.185 24.3395 175.266 24.7657C174.347 25.1853 173.321 25.395 172.189 25.395ZM187.793 25.395C186.321 25.395 185.106 25.0687 184.147 24.4161C183.188 23.7568 182.518 22.8377 182.139 21.6589C181.759 20.4735 181.699 19.0949 181.959 17.5232C182.219 15.9515 182.735 14.5663 183.507 13.3676C184.28 12.1622 185.242 11.2231 186.394 10.5505C187.546 9.87121 188.812 9.53156 190.19 9.53156C190.99 9.53156 191.759 9.66476 192.498 9.93115C193.237 10.1975 193.877 10.6304 194.416 11.2298C194.955 11.8225 195.332 12.6084 195.545 13.5873C195.758 14.5663 195.745 15.7717 195.505 17.2036L195.345 18.2025H183.517L183.837 16.1647H193.267C193.42 15.2989 193.38 14.5264 193.147 13.8471C192.921 13.1678 192.525 12.6317 191.959 12.2387C191.399 11.8458 190.69 11.6494 189.831 11.6494C188.945 11.6494 188.119 11.8891 187.353 12.3686C186.587 12.8414 185.948 13.4408 185.435 14.1667C184.922 14.886 184.603 15.6186 184.476 16.3644L184.197 18.1226C183.997 19.3946 184.027 20.4069 184.286 21.1595C184.553 21.912 185.016 22.4548 185.675 22.7878C186.334 23.1141 187.16 23.2773 188.152 23.2773C188.785 23.2773 189.368 23.1907 189.901 23.0175C190.433 22.8377 190.91 22.5713 191.329 22.2184C191.749 21.8587 192.102 21.4125 192.388 20.8797L194.546 21.5191C194.18 22.2916 193.663 22.9709 192.997 23.557C192.338 24.1364 191.566 24.5892 190.68 24.9155C189.801 25.2352 188.838 25.395 187.793 25.395ZM197.518 25.0754L200.075 9.73135H202.433L199.876 25.0754H197.518ZM201.973 7.13406C201.514 7.13406 201.118 6.97755 200.785 6.66455C200.458 6.35154 200.295 5.97526 200.295 5.53572C200.295 5.09618 200.458 4.7199 200.785 4.4069C201.118 4.09389 201.514 3.93739 201.973 3.93739C202.433 3.93739 202.826 4.09389 203.152 4.4069C203.485 4.7199 203.652 5.09618 203.652 5.53572C203.652 5.97526 203.485 6.35154 203.152 6.66455C202.826 6.97755 202.433 7.13406 201.973 7.13406ZM203.884 25.0754L206.441 9.73135H208.719L208.319 12.0489H208.479C208.879 11.2897 209.488 10.6737 210.307 10.2009C211.127 9.72802 211.996 9.4916 212.915 9.4916C213.094 9.4916 213.311 9.49493 213.564 9.50159C213.817 9.50159 214.014 9.51158 214.153 9.53156L213.754 11.9291C213.674 11.9091 213.494 11.8791 213.214 11.8392C212.935 11.7925 212.635 11.7692 212.315 11.7692C211.569 11.7692 210.88 11.9257 210.247 12.2387C209.615 12.5451 209.085 12.9713 208.659 13.5174C208.233 14.0569 207.96 14.6729 207.84 15.3655L206.242 25.0754H203.884ZM218.572 25.435C217.599 25.435 216.747 25.2519 216.014 24.8856C215.282 24.5126 214.739 23.9765 214.386 23.2773C214.033 22.5713 213.936 21.7189 214.096 20.7199C214.249 19.8408 214.546 19.1282 214.985 18.5821C215.425 18.0294 215.958 17.5965 216.584 17.2835C217.216 16.9638 217.896 16.7274 218.621 16.5742C219.354 16.4144 220.083 16.2912 220.809 16.2046C221.755 16.0847 222.524 15.9915 223.117 15.9249C223.709 15.8583 224.156 15.7484 224.455 15.5952C224.755 15.4421 224.938 15.179 225.005 14.8061V14.7262C225.165 13.7472 225.035 12.9846 224.615 12.4385C224.196 11.8858 223.446 11.6094 222.368 11.6094C221.249 11.6094 220.313 11.8558 219.56 12.3486C218.808 12.8414 218.252 13.3676 217.892 13.927L215.814 13.1278C216.36 12.1955 217.013 11.4695 217.772 10.9501C218.532 10.424 219.327 10.0577 220.16 9.85123C220.992 9.63812 221.795 9.53156 222.567 9.53156C223.06 9.53156 223.616 9.5915 224.236 9.71137C224.855 9.82459 225.434 10.061 225.974 10.4206C226.52 10.7803 226.929 11.323 227.203 12.0489C227.482 12.7749 227.522 13.7472 227.322 14.9659L225.644 25.0754H223.287L223.646 22.9975H223.526C223.313 23.3305 222.987 23.6868 222.547 24.0664C222.114 24.446 221.565 24.769 220.899 25.0354C220.24 25.3018 219.464 25.435 218.572 25.435ZM219.251 23.3172C220.183 23.3172 220.999 23.1341 221.698 22.7678C222.404 22.4015 222.97 21.9287 223.396 21.3493C223.829 20.7699 224.099 20.1605 224.206 19.5212L224.565 17.3634C224.445 17.4833 224.209 17.5932 223.856 17.6931C223.503 17.7863 223.103 17.8695 222.657 17.9428C222.218 18.0094 221.788 18.0693 221.369 18.1226C220.956 18.1692 220.623 18.2092 220.37 18.2425C219.744 18.3224 219.148 18.4523 218.582 18.6321C218.022 18.8052 217.549 19.0683 217.163 19.4213C216.783 19.7676 216.547 20.2404 216.454 20.8398C216.314 21.6589 216.51 22.2783 217.043 22.6979C217.576 23.1108 218.312 23.3172 219.251 23.3172Z" fill="#F7FFF3"/>
</svg>
